<?xml version="1.0" standalone="no"?>
<!DOCTYPE svg PUBLIC "-//W3C//DTD SVG 20010904//EN"
 "http://www.w3.org/TR/2001/REC-SVG-20010904/DTD/svg10.dtd">
<svg version="1.0" xmlns="http://www.w3.org/2000/svg"
 width="980.000000pt" height="980.000000pt" viewBox="0 0 980.000000 980.000000"
 preserveAspectRatio="xMidYMid meet">

<g transform="translate(0.000000,980.000000) scale(0.100000,-0.100000)"
fill="#000000" stroke="none">
<path d="M0 4900 l0 -4900 4900 0 4900 0 0 4900 0 4900 -4900 0 -4900 0 0
-4900z m9790 0 l0 -4890 -4890 0 -4890 0 0 4890 0 4890 4890 0 4890 0 0 -4890z"/>
<path d="M3290 5346 l0 -1606 -187 2 -188 3 -5 1363 -5 1363 -60 -39 c-33 -21
-77 -53 -98 -71 -51 -46 -119 -152 -153 -241 l-29 -75 -3 -1422 -2 -1423 722
0 723 0 192 -175 c106 -96 195 -175 198 -175 3 0 5 628 5 1395 l0 1395 -375 0
-375 0 2 188 3 187 958 3 957 2 0 -190 0 -190 -395 0 -395 0 0 -1220 0 -1220
671 0 671 0 41 -46 c50 -57 105 -84 172 -84 73 0 121 17 166 57 76 69 102 155
74 248 -31 108 -119 175 -230 175 -85 0 -143 -29 -196 -98 l-26 -34 -171 -1
c-95 -1 -171 0 -169 3 1 3 17 34 36 70 39 74 61 148 61 203 l0 37 -228 0 -229
0 -31 -44 c-93 -129 -290 -126 -379 7 -79 117 -37 273 91 339 56 29 146 29
202 0 40 -20 104 -83 104 -102 0 -6 91 -10 235 -10 l235 0 0 155 0 155 246 0
246 0 41 -46 c53 -60 105 -84 182 -84 221 0 329 263 169 410 -57 53 -99 70
-169 70 -72 0 -141 -34 -190 -94 l-37 -46 -241 3 -242 2 -3 198 -2 197 -110 0
c-64 0 -110 -4 -110 -10 0 -18 -64 -81 -104 -103 -82 -42 -198 -23 -265 44
-136 136 -55 373 135 395 80 10 129 -10 196 -77 l60 -59 99 0 98 0 3 148 3
147 440 3 441 2 38 -46 c130 -155 366 -108 422 84 39 134 -36 262 -177 298
-90 24 -209 -21 -252 -95 l-18 -31 -450 0 -449 0 0 195 0 195 66 0 66 0 44
-49 c57 -63 110 -85 198 -79 156 10 258 154 215 305 -17 65 -98 147 -160 163
-100 27 -213 -11 -267 -91 l-27 -39 -65 3 -65 2 -3 188 -2 187 -1104 0 -1103
0 -176 204 c-97 112 -184 209 -192 216 -13 11 -15 -163 -15 -1594z m3011 791
c39 -26 64 -84 55 -123 -4 -15 -22 -42 -41 -61 -40 -40 -91 -44 -143 -13 -74
46 -69 164 10 203 45 23 79 21 119 -6z m764 -609 c59 -46 66 -123 15 -178 -58
-62 -156 -44 -191 35 -23 53 -12 102 32 139 40 34 104 36 144 4z m-407 -1088
c46 -28 68 -82 53 -131 -16 -54 -62 -89 -116 -89 -36 0 -50 6 -79 34 -30 28
-36 40 -36 75 0 106 92 163 178 111z m-259 -1024 c40 -21 61 -59 61 -108 0
-97 -100 -150 -181 -95 -48 32 -67 89 -46 139 28 66 104 95 166 64z"/>
<path d="M5425 5063 c-62 -16 -112 -94 -96 -151 21 -71 59 -102 127 -102 66 0
106 37 128 115 8 29 -34 107 -64 122 -34 16 -71 22 -95 16z"/>
<path d="M5134 3931 c-68 -41 -76 -148 -15 -203 82 -73 211 -19 213 89 1 105
-109 168 -198 114z"/>
</g>
</svg>
